<svg width="400" height="250" viewBox="0 0 400 250" xmlns="http://www.w3.org/2000/svg">
  <line x1="50" y1="50" x2="350" y2="50" stroke="black" stroke-width="2" />
  <line x1="50" y1="200" x2="350" y2="200" stroke="black" stroke-width="2" />
  
  <path d="M 210 45 L 220 50 L 210 55 M 220 45 L 230 50 L 220 55" fill="none" stroke="black" stroke-width="2" />
  <path d="M 210 195 L 220 200 L 210 205 M 220 195 L 230 200 L 220 205" fill="none" stroke="black" stroke-width="2" />

  <polyline points="50,50 150,125 50,200" fill="none" stroke="black" stroke-width="2" />

  <text x="35" y="55" font-family="Arial" font-size="16">P</text>
  <text x="355" y="55" font-family="Arial" font-size="16">Q</text>
  <text x="35" y="205" font-family="Arial" font-size="16">S</text>
  <text x="355" y="205" font-family="Arial" font-size="16">R</text>
  
  <path d="M 80 50 A 30 30 0 0 1 72 67" fill="none" stroke="black" stroke-width="1.5" />
  <text x="85" y="65" font-family="Arial" font-size="14">x°</text>
  
  <path d="M 72 183 A 30 30 0 0 1 80 200" fill="none" stroke="black" stroke-width="1.5" />
  <text x="85" y="195" font-family="Arial" font-size="14">68°</text>
  
  <path d="M 123 105 A 35 35 0 1 1 123 145" fill="none" stroke="black" stroke-width="1.5" />
  <text x="160" y="130" font-family="Arial" font-size="14">246°</text>
</svg>
