<svg viewBox="0 0 500 380" width="100%" height="100%" style="background:#fff;" xmlns="http://www.w3.org/2000/svg">
    <g stroke="#cbd5e1" stroke-width="1">
        <!-- Vertical -->
        <line x1="50" y1="20" x2="50" y2="300"/><line x1="100" y1="20" x2="100" y2="300"/><line x1="150" y1="20" x2="150" y2="300"/>
        <line x1="200" y1="20" x2="200" y2="300"/><line x1="250" y1="20" x2="250" y2="300"/><line x1="300" y1="20" x2="300" y2="300"/>
        <line x1="350" y1="20" x2="350" y2="300"/><line x1="400" y1="20" x2="400" y2="300"/><line x1="450" y1="20" x2="450" y2="300"/>
        <!-- Horizontal -->
        <line x1="50" y1="300" x2="450" y2="300"/><line x1="50" y1="280" x2="450" y2="280"/><line x1="50" y1="260" x2="450" y2="260"/>
        <line x1="50" y1="240" x2="450" y2="240"/><line x1="50" y1="220" x2="450" y2="220"/><line x1="50" y1="200" x2="450" y2="200"/>
        <line x1="50" y1="180" x2="450" y2="180"/><line x1="50" y1="160" x2="450" y2="160"/><line x1="50" y1="140" x2="450" y2="140"/>
        <line x1="50" y1="120" x2="450" y2="120"/><line x1="50" y1="100" x2="450" y2="100"/><line x1="50" y1="80" x2="450" y2="80"/>
        <line x1="50" y1="60" x2="450" y2="60"/><line x1="50" y1="40" x2="450" y2="40"/><line x1="50" y1="20" x2="450" y2="20"/>
    </g>
    <g font-size="12" text-anchor="middle">
        <text x="50" y="320">0</text><text x="150" y="320">20</text><text x="250" y="320">40</text>
        <text x="350" y="320">60</text><text x="450" y="320">80</text>
    </g>
    <g font-size="12" text-anchor="end">
        <text x="40" y="264">20</text><text x="40" y="224">40</text><text x="40" y="184">60</text>
        <text x="40" y="144">80</text><text x="40" y="104">100</text><text x="40" y="64">120</text>
        <text x="40" y="24">140</text>
    </g>
    <line x1="50" y1="300" x2="480" y2="300" stroke="#1e293b" stroke-width="2"/>
    <line x1="50" y1="300" x2="50" y2="10" stroke="#1e293b" stroke-width="2"/>
    <text x="40" y="304" font-size="12" text-anchor="end">0</text>
    <text x="250" y="350" font-size="14" font-weight="bold" text-anchor="middle">Singapore dollars</text>
    <text x="15" y="150" font-size="14" font-weight="bold" text-anchor="middle" transform="rotate(-90 15,150)">Malaysian ringgits</text>
    <line x1="50" y1="300" x2="330" y2="20" stroke="#2563eb" stroke-width="3"/>
</svg>