<svg width="100" height="100" viewBox="0 0 100 100" fill="none" xmlns="http://www.w3.org/2000/svg" role="img" aria-label="Prep Portal"><g transform="translate(50 25) rotate(10) scale(1 0.95)"><path d="M 13.7 -4.5 Q 15.0 0.0 14.2 4.9 Q 13.4 9.7 8.7 11.2 Q 4.1 12.7 0.0 12.6 Q -4.1 12.6 -6.9 9.8 Q -9.6 7.0 -11.6 3.5 Q -13.6 0.0 -11.6 -3.5 Q -9.6 -6.9 -6.7 -9.4 Q -3.8 -11.8 0.0 -11.8 Q 3.8 -11.8 8.1 -10.4 Q 12.4 -9.0 13.7 -4.5 Z" fill="#7cc0ec"/></g><g transform="translate(73.77641290737884 42.27457514062632) rotate(82) scale(1 0.95)"><path d="M 11.3 -3.9 Q 11.9 0.0 11.4 4.0 Q 10.9 8.0 7.4 9.8 Q 3.8 11.5 -0.2 12.2 Q -4.1 12.8 -7.7 10.4 Q -11.2 8.1 -11.4 4.1 Q -11.6 0.0 -10.5 -3.4 Q -9.5 -6.9 -6.6 -9.3 Q -3.8 -11.6 0.7 -13.6 Q 5.1 -15.6 8.0 -11.8 Q 10.8 -7.9 11.3 -3.9 Z" fill="#f0cf6e"/></g><g transform="translate(64.69463130731182 70.22542485937369) rotate(154) scale(1 0.95)"><path d="M 12.3 -4.4 Q 12.3 0.0 13.0 5.0 Q 13.7 9.9 8.6 10.6 Q 3.6 11.2 -0.1 11.5 Q -3.8 11.8 -8.2 10.5 Q -12.6 9.2 -12.2 4.6 Q -11.8 0.0 -11.8 -4.3 Q -11.9 -8.6 -8.3 -11.7 Q -4.8 -14.8 -0.5 -13.4 Q 3.9 -12.0 8.1 -10.5 Q 12.2 -8.9 12.3 -4.4 Z" fill="#f08a8a"/></g><g transform="translate(35.30536869268818 70.22542485937369) rotate(226) scale(1 0.95)"><path d="M 11.4 -3.6 Q 12.9 0.0 12.9 4.7 Q 12.9 9.3 9.0 12.5 Q 5.1 15.6 0.2 14.9 Q -4.6 14.3 -7.2 10.7 Q -9.8 7.1 -10.8 3.6 Q -11.9 0.0 -11.7 -4.2 Q -11.5 -8.4 -8.3 -11.9 Q -5.0 -15.5 -0.4 -14.3 Q 4.3 -13.2 7.1 -10.2 Q 10.0 -7.2 11.4 -3.6 Z" fill="#8ace8a"/></g><g transform="translate(26.223587092621162 42.274575140626304) rotate(298) scale(1 0.95)"><path d="M 11.8 -4.0 Q 12.6 0.0 11.7 3.9 Q 10.9 7.9 7.6 10.8 Q 4.4 13.6 -0.0 13.7 Q -4.5 13.8 -7.5 10.7 Q -10.5 7.7 -13.4 3.8 Q -16.2 0.0 -14.5 -4.6 Q -12.8 -9.3 -8.6 -11.4 Q -4.4 -13.5 0.4 -14.6 Q 5.1 -15.7 8.1 -11.9 Q 11.1 -8.1 11.8 -4.0 Z" fill="#f0b074"/></g><path d="M 54.2 48.5 L 54.4 48.8 L 54.6 49.1 L 54.7 49.5 L 54.8 49.9 L 54.9 50.3 L 54.9 50.7 L 54.9 51.1 L 54.9 51.5 L 54.8 51.9 L 54.7 52.3 L 54.6 52.7 L 54.4 53.1 L 54.2 53.5 L 53.9 53.9 L 53.7 54.2 L 53.4 54.6 L 53.0 54.9 L 52.7 55.2 L 52.3 55.4 L 51.8 55.7 L 51.4 55.9 L 50.9 56.0 L 50.5 56.1 L 50.0 56.2 L 49.5 56.3 L 48.9 56.3 L 48.4 56.3 L 47.9 56.2 L 47.4 56.1 L 46.9 55.9 L 46.4 55.7 L 45.9 55.4 L 45.4 55.1 L 45.0 54.8 L 44.5 54.4 L 44.1 54.0 L 43.8 53.6 L 43.4 53.1 L 43.2 52.6 L 42.9 52.0 L 42.7 51.5 L 42.5 50.9 L 42.4 50.3 L 42.3 49.7 L 42.3 49.1 L 42.3 48.4 L 42.4 47.8 L 42.6 47.2 L 42.7 46.6 L 43.0 45.9 L 43.3 45.4 L 43.6 44.8 L 44.0 44.2 L 44.4 43.7 L 44.9 43.2 L 45.4 42.8 L 46.0 42.4 L 46.6 42.0 L 47.2 41.7 L 47.9 41.4 L 48.5 41.2 L 49.2 41.1 L 50.0 41.0 L 50.7 40.9 L 51.4 40.9 L 52.2 41.0 L 52.9 41.1 L 53.6 41.3 L 54.4 41.6 L 55.1 41.9 L 55.7 42.3 L 56.4 42.7 L 57.0 43.2 L 57.6 43.7 L 58.1 44.3 L 58.6 44.9 L 59.1 45.6 L 59.4 46.3 L 59.8 47.1 L 60.1 47.9 L 60.3 48.7 L 60.4 49.5 L 60.5 50.3 L 60.5 51.2 L 60.4 52.0 L 60.3 52.9 L 60.1 53.7 L 59.9 54.6 L 59.5 55.4 L 59.1 56.2 " fill="none" stroke="#efece3" stroke-width="3.2" stroke-linecap="round" stroke-linejoin="round"/></svg>
