<svg xmlns="http://www.w3.org/2000/svg" viewBox="0 0 200 160" width="300" height="240"
     font-family="'Courier New', Courier, monospace" font-size="15">

  <!-- Row 1: 879 -->
  <text x="110" y="20" text-anchor="middle">8</text>
  <text x="130" y="20" text-anchor="middle">7</text>
  <text x="150" y="20" text-anchor="middle">9</text>

  <!-- Row 2: × 492 -->
  <text x="70"  y="40" text-anchor="middle">×</text>
  <text x="110" y="40" text-anchor="middle">4</text>
  <text x="130" y="40" text-anchor="middle">9</text>
  <text x="150" y="40" text-anchor="middle">2</text>

  <!-- Line 1 -->
  <line x1="18" y1="46" x2="162" y2="46" stroke="black" stroke-width="1.2"/>

  <!-- Row 3: □758  (col3=□, col2=7, col1=5, col0=8) -->
  <rect x="83" y="49" width="16" height="16" fill="white" stroke="black" stroke-width="1.2"/>
  <text x="110" y="63" text-anchor="middle">7</text>
  <text x="130" y="63" text-anchor="middle">5</text>
  <text x="150" y="63" text-anchor="middle">8</text>

  <!-- Row 4: 7□11  (col4=7, col3=□, col2=1, col1=1) -->
  <text x="70"  y="83" text-anchor="middle">7</text>
  <rect x="83" y="69" width="16" height="16" fill="white" stroke="black" stroke-width="1.2"/>
  <text x="110" y="83" text-anchor="middle">1</text>
  <text x="130" y="83" text-anchor="middle">1</text>

  <!-- Row 5: 35□6  (col5=3, col4=5, col3=□, col2=6) -->
  <text x="50"  y="103" text-anchor="middle">3</text>
  <text x="70"  y="103" text-anchor="middle">5</text>
  <rect x="83" y="89" width="16" height="16" fill="white" stroke="black" stroke-width="1.2"/>
  <text x="110" y="103" text-anchor="middle">6</text>

  <!-- Line 2 -->
  <line x1="18" y1="109" x2="162" y2="109" stroke="black" stroke-width="1.2"/>

  <!-- Row 6: 43□468  (col5=4, col4=3, col3=□, col2=4, col1=6, col0=8) -->
  <text x="50"  y="128" text-anchor="middle">4</text>
  <text x="70"  y="128" text-anchor="middle">3</text>
  <rect x="83" y="112" width="16" height="16" fill="white" stroke="black" stroke-width="1.2"/>
  <text x="110" y="128" text-anchor="middle">4</text>
  <text x="130" y="128" text-anchor="middle">6</text>
  <text x="150" y="128" text-anchor="middle">8</text>

</svg>
