<svg viewBox="0 0 400 200" width="100%" height="100%" style="max-width: 400px; background: transparent;" xmlns="http://www.w3.org/2000/svg">
  <path d="M 80,100 Q 140,40 200,50 Q 280,60 320,100" fill="none" stroke="#1e293b" stroke-width="2" />
  <path d="M 80,100 Q 140,100 200,100 Q 260,100 320,100" fill="none" stroke="#1e293b" stroke-width="2" />
  <path d="M 80,100 Q 140,160 200,150 Q 280,140 320,100" fill="none" stroke="#1e293b" stroke-width="2" />
  <path d="M 200,50 Q 190,75 200,100" fill="none" stroke="#1e293b" stroke-width="2" />
  <path d="M 200,100 Q 190,125 200,150" fill="none" stroke="#1e293b" stroke-width="2" />
  <circle cx="80" cy="100" r="4" fill="#1e293b" /><text x="60" y="105" font-size="14" font-weight="bold">A</text>
  <circle cx="320" cy="100" r="4" fill="#1e293b" /><text x="330" y="105" font-size="14" font-weight="bold">B</text>
  <circle cx="200" cy="50" r="3" fill="#1e293b" />
  <circle cx="200" cy="100" r="3" fill="#1e293b" />
  <circle cx="200" cy="150" r="3" fill="#1e293b" />
  <text x="130" y="65" font-size="11" font-weight="500">13.8 km</text>
  <text x="250" y="45" font-size="11" font-weight="500">22.8 km</text>
  <text x="140" y="95" font-size="11" font-weight="500">15.8 km</text>
  <text x="260" y="95" font-size="11" font-weight="500">20.9 km</text>
  <text x="130" y="145" font-size="11" font-weight="500">12.4 km</text>
  <text x="250" y="165" font-size="11" font-weight="500">24.4 km</text>
  <text x="205" y="75" font-size="11" font-weight="500">5 km</text>
  <text x="205" y="130" font-size="11" font-weight="500">4 km</text>
  <text x="390" y="20" font-size="10" text-anchor="end" font-style="italic" fill="#64748b">Not drawn to scale</text>
</svg>