<svg id="q13-line-svg" viewBox="0 0 600 120" width="100%" height="100%" style="overflow:visible; cursor:crosshair; touch-action:none;" xmlns="http://www.w3.org/2000/svg">
    <defs>
        <marker id="q13-arrow-head" markerWidth="10" markerHeight="7" refX="9" refY="3.5" orient="auto"><polygon points="0 0, 10 3.5, 0 7" fill="#1e293b"/></marker>
        <marker id="q13-arrow-head-rev" markerWidth="10" markerHeight="7" refX="1" refY="3.5" orient="auto"><polygon points="10 0, 0 3.5, 10 7" fill="#1e293b"/></marker>
        <marker id="q13-arrow-blue" markerWidth="10" markerHeight="7" refX="9" refY="3.5" orient="auto"><polygon points="0 0, 10 3.5, 0 7" fill="#2563eb"/></marker>
        <marker id="q13-arrow-green" markerWidth="10" markerHeight="7" refX="9" refY="3.5" orient="auto"><polygon points="0 0, 10 3.5, 0 7" fill="#22c55e"/></marker>
        <marker id="q13-arrow-red" markerWidth="10" markerHeight="7" refX="9" refY="3.5" orient="auto"><polygon points="0 0, 10 3.5, 0 7" fill="#ef4444"/></marker>
    </defs>
    
    <line x1="40" y1="80" x2="560" y2="80" stroke="#1e293b" stroke-width="2" marker-start="url(#q13-arrow-head-rev)" marker-end="url(#q13-arrow-head)"/>
    
    <line x1="100" y1="70" x2="100" y2="90" stroke="#1e293b" stroke-width="2"/>
    <text x="100" y="110" font-size="16" font-weight="bold" text-anchor="middle">5</text>
    
    <line x1="300" y1="70" x2="300" y2="90" stroke="#1e293b" stroke-width="2"/>
    <text x="300" y="110" font-size="16" font-weight="bold" text-anchor="middle">6</text>
    
    <line x1="500" y1="70" x2="500" y2="90" stroke="#1e293b" stroke-width="2"/>
    <text x="500" y="110" font-size="16" font-weight="bold" text-anchor="middle">7</text>
    
    <line x1="200" y1="75" x2="200" y2="85" stroke="#1e293b" stroke-width="2"/>
    <line x1="400" y1="75" x2="400" y2="85" stroke="#1e293b" stroke-width="2"/>

    <rect x="40" y="40" width="520" height="80" fill="transparent" />
    <g id="q13-markers"></g>
</svg>