<svg viewBox="0 0 600 120" width="100%" height="100%" xmlns="http://www.w3.org/2000/svg">
  <defs>
    <marker id="arrow-head" markerWidth="10" markerHeight="7" refX="9" refY="3.5" orient="auto">
      <polygon points="0 0, 10 3.5, 0 7" fill="#1e293b" />
    </marker>
  </defs>
  <line x1="40" y1="60" x2="560" y2="60" stroke="#1e293b" stroke-width="2" marker-end="url(#arrow-head)" />
  <g stroke="#1e293b" stroke-width="2">
    <line x1="60" y1="45" x2="60" y2="75" />
    <line x1="180" y1="45" x2="180" y2="75" />
    <line x1="300" y1="45" x2="300" y2="75" />
    <line x1="420" y1="45" x2="420" y2="75" />
  </g>
  <g font-size="16" text-anchor="middle" fill="#1e293b">
    <text x="60" y="100">0</text>
    <text x="180" y="100">100</text>
    <text x="300" y="100">200</text>
    <text x="420" y="100">300</text>
  </g>
  <g transform="translate(120, 60)">
    <line x1="0" y1="35" x2="0" y2="5" stroke="#2563eb" stroke-width="3" />
    <polygon points="-6,10 6,10 0,0" fill="#2563eb" />
    <text x="0" y="55" text-anchor="middle" font-size="18" font-weight="bold" fill="#2563eb">A</text>
  </g>
  <g transform="translate(360, 60)">
    <line x1="0" y1="35" x2="0" y2="5" stroke="#2563eb" stroke-width="3" />
    <polygon points="-6,10 6,10 0,0" fill="#2563eb" />
    <text x="0" y="55" text-anchor="middle" font-size="18" font-weight="bold" fill="#2563eb">B</text>
  </g>
</svg>