<svg viewBox="0 0 250 200" width="100%" height="100%" style="max-width: 250px; background-image: radial-gradient(#cbd5e1 1px, transparent 1px); background-size: 15px 15px;" xmlns="http://www.w3.org/2000/svg">
    <defs><marker id="pointer" markerWidth="8" markerHeight="8" refX="8" refY="4" orient="auto"><polygon points="0 0, 8 4, 0 8" fill="#64748b"/></marker></defs>
    <path d="M 50 150 L 200 150 L 200 80 L 125 40 L 50 80 Z" stroke="#1e293b" stroke-width="3" fill="rgba(255,255,255,0.9)"/>
    <polyline points="50,135 65,135 65,150" stroke="#1e293b" stroke-width="1.5" fill="none"/>
    <polyline points="200,135 185,135 185,150" stroke="#1e293b" stroke-width="1.5" fill="none"/>
    <g font-size="12" fill="#64748b">
        <text x="40" y="40">line 1</text><line x1="60" y1="45" x2="80" y2="58" stroke="#64748b" stroke-width="1.5" marker-end="url(#pointer)"/>
        <text x="180" y="40">line 2</text><line x1="185" y1="45" x2="165" y2="58" stroke="#64748b" stroke-width="1.5" marker-end="url(#pointer)"/>
        <text x="215" y="120">line 3</text><line x1="210" y1="116" x2="200" y2="116" stroke="#64748b" stroke-width="1.5" marker-end="url(#pointer)"/>
        <text x="110" y="180">line 4</text><line x1="125" y1="168" x2="125" y2="150" stroke="#64748b" stroke-width="1.5" marker-end="url(#pointer)"/>
        <text x="10" y="120">line 5</text><line x1="35" y1="116" x2="50" y2="116" stroke="#64748b" stroke-width="1.5" marker-end="url(#pointer)"/>
    </g>
</svg>