<svg viewBox="-10 -10 420 420" width="100%" height="100%" style="max-width:350px; background:#fff;" xmlns="http://www.w3.org/2000/svg">
    <defs><marker id="arrow" markerWidth="6" markerHeight="6" refX="5" refY="3" orient="auto"><polygon points="0 0, 6 3, 0 6" fill="#1e293b"/></marker></defs>
    
    <g stroke="#cbd5e1" stroke-width="1">
        <!-- Horizontal Grid -->
        <line x1="0" y1="0" x2="400" y2="0"/><line x1="0" y1="20" x2="400" y2="20"/><line x1="0" y1="40" x2="400" y2="40"/>
        <line x1="0" y1="60" x2="400" y2="60"/><line x1="0" y1="80" x2="400" y2="80"/><line x1="0" y1="100" x2="400" y2="100"/>
        <line x1="0" y1="120" x2="400" y2="120"/><line x1="0" y1="140" x2="400" y2="140"/><line x1="0" y1="160" x2="400" y2="160"/>
        <line x1="0" y1="180" x2="400" y2="180"/><line x1="0" y1="220" x2="400" y2="220"/><line x1="0" y1="240" x2="400" y2="240"/>
        <line x1="0" y1="260" x2="400" y2="260"/><line x1="0" y1="280" x2="400" y2="280"/><line x1="0" y1="300" x2="400" y2="300"/>
        <line x1="0" y1="320" x2="400" y2="320"/><line x1="0" y1="340" x2="400" y2="340"/><line x1="0" y1="360" x2="400" y2="360"/>
        <line x1="0" y1="380" x2="400" y2="380"/><line x1="0" y1="400" x2="400" y2="400"/>
        
        <!-- Vertical Grid -->
        <line x1="0" y1="0" x2="0" y2="400"/><line x1="20" y1="0" x2="20" y2="400"/><line x1="40" y1="0" x2="40" y2="400"/>
        <line x1="60" y1="0" x2="60" y2="400"/><line x1="80" y1="0" x2="80" y2="400"/><line x1="100" y1="0" x2="100" y2="400"/>
        <line x1="120" y1="0" x2="120" y2="400"/><line x1="140" y1="0" x2="140" y2="400"/><line x1="160" y1="0" x2="160" y2="400"/>
        <line x1="180" y1="0" x2="180" y2="400"/><line x1="220" y1="0" x2="220" y2="400"/><line x1="240" y1="0" x2="240" y2="400"/>
        <line x1="260" y1="0" x2="260" y2="400"/><line x1="280" y1="0" x2="280" y2="400"/><line x1="300" y1="0" x2="300" y2="400"/>
        <line x1="320" y1="0" x2="320" y2="400"/><line x1="340" y1="0" x2="340" y2="400"/><line x1="360" y1="0" x2="360" y2="400"/>
        <line x1="380" y1="0" x2="380" y2="400"/><line x1="400" y1="0" x2="400" y2="400"/>
    </g>
    
    <!-- Axes & Labels -->
    <g stroke="#1e293b" stroke-width="2">
        <line x1="0" y1="200" x2="400" y2="200" marker-end="url(#arrow)"/>
        <line x1="200" y1="400" x2="200" y2="0" marker-end="url(#arrow)"/>
    </g>
    <g font-size="10" text-anchor="middle">
        <text x="40" y="215">-8</text><text x="80" y="215">-6</text><text x="120" y="215">-4</text><text x="160" y="215">-2</text>
        <text x="240" y="215">2</text><text x="280" y="215">4</text><text x="320" y="215">6</text><text x="360" y="215">8</text>
        <text x="400" y="215">10</text>
    </g>
    <g font-size="10" text-anchor="end">
        <text x="185" y="364">-8</text><text x="185" y="324">-6</text><text x="185" y="284">-4</text><text x="185" y="244">-2</text>
        <text x="185" y="164">2</text><text x="185" y="124">4</text><text x="185" y="84">6</text><text x="185" y="44">8</text>
        <text x="185" y="4">10</text>
    </g>
    <text x="190" y="215" font-size="10">0</text>
    <text x="405" y="195" font-size="12" font-style="italic">x</text>
    <text x="205" y="5" font-size="12" font-style="italic">y</text>

    <!-- Shapes -->
    <path d="M 80 320 L 80 240 L 160 240 L 160 320 Z" fill="rgba(37,99,235,0.2)" stroke="#2563eb" stroke-width="2"/>
    <circle cx="80" cy="320" r="3" fill="#1e293b"/><text x="70" y="335" font-size="14" font-weight="bold">A</text>
    <circle cx="80" cy="240" r="3" fill="#1e293b"/><text x="65" y="245" font-size="14" font-weight="bold">B</text>
    <circle cx="160" cy="240" r="3" fill="#1e293b"/><text x="165" y="235" font-size="14" font-weight="bold">C</text>
    <circle cx="160" cy="320" r="3" fill="#1e293b"/><text x="165" y="335" font-size="14" font-weight="bold">D</text>
</svg>