<svg id="q12-grid" viewBox="0 0 280 200" width="100%" height="100%" style="background:#fff; cursor: crosshair; touch-action: none;" xmlns="http://www.w3.org/2000/svg">
    <g stroke="#cbd5e1" stroke-width="1">
        <!-- Vertical -->
        <line x1="0" y1="0" x2="0" y2="200"/><line x1="20" y1="0" x2="20" y2="200"/><line x1="40" y1="0" x2="40" y2="200"/>
        <line x1="60" y1="0" x2="60" y2="200"/><line x1="80" y1="0" x2="80" y2="200"/><line x1="100" y1="0" x2="100" y2="200"/>
        <line x1="120" y1="0" x2="120" y2="200"/><line x1="140" y1="0" x2="140" y2="200"/><line x1="160" y1="0" x2="160" y2="200"/>
        <line x1="180" y1="0" x2="180" y2="200"/><line x1="200" y1="0" x2="200" y2="200"/><line x1="220" y1="0" x2="220" y2="200"/>
        <line x1="240" y1="0" x2="240" y2="200"/><line x1="260" y1="0" x2="260" y2="200"/><line x1="280" y1="0" x2="280" y2="200"/>
        <!-- Horizontal -->
        <line x1="0" y1="0" x2="280" y2="0"/><line x1="0" y1="20" x2="280" y2="20"/><line x1="0" y1="40" x2="280" y2="40"/>
        <line x1="0" y1="60" x2="280" y2="60"/><line x1="0" y1="80" x2="280" y2="80"/><line x1="0" y1="100" x2="280" y2="100"/>
        <line x1="0" y1="120" x2="280" y2="120"/><line x1="0" y1="140" x2="280" y2="140"/><line x1="0" y1="160" x2="280" y2="160"/>
        <line x1="0" y1="180" x2="280" y2="180"/><line x1="0" y1="200" x2="280" y2="200"/>
    </g>
    <polygon points="140,80 140,140 80,140" fill="rgba(37,99,235,0.2)" stroke="#1e293b" stroke-width="2"/>
    <circle cx="140" cy="80" r="4" fill="#1e293b"/>
    <text x="146" y="75" font-size="14" font-weight="bold">A</text>
    
    <polygon id="q12-user-poly" points="" fill="rgba(239,68,68,0.2)" stroke="#ef4444" stroke-width="2" stroke-dasharray="4"/>
    <g id="q12-user-pts"></g>
</svg>