<svg xmlns="http://www.w3.org/2000/svg" viewBox="0 0 200 150" width="100%" height="100%">
  <g stroke="black" stroke-width="1.5" stroke-linejoin="round" stroke-linecap="round">
    <!-- Top Face (Pinkish) -->
    <polygon points="100,20 148,44 100,68 52,44" fill="#c23b77" />
    <line x1="116" y1="28" x2="68" y2="52" />
    <line x1="132" y1="36" x2="84" y2="60" />
    <line x1="84" y1="28" x2="132" y2="52" />
    <line x1="68" y1="36" x2="116" y2="60" />
    
    <!-- Left Face (Greenish) -->
    <polygon points="52,44 100,68 100,116 52,92" fill="#7bb242" />
    <line x1="68" y1="52" x2="68" y2="100" />
    <line x1="84" y1="60" x2="84" y2="108" />
    <line x1="52" y1="60" x2="100" y2="84" />
    <line x1="52" y1="76" x2="100" y2="100" />
    
    <!-- Right Face (Blueish) -->
    <polygon points="100,68 148,44 148,92 100,116" fill="#2a5298" />
    <line x1="116" y1="60" x2="116" y2="108" />
    <line x1="132" y1="52" x2="132" y2="100" />
    <line x1="100" y1="84" x2="148" y2="60" />
    <line x1="100" y1="100" x2="148" y2="76" />
  </g>
</svg>