<svg xmlns="http://www.w3.org/2000/svg" viewBox="0 0 420 120" width="100%" height="100%">
  <text x="10" y="20" font-family="sans-serif" font-size="14" font-weight="bold" fill="black">Sample</text>
  
  <!-- Sample Figure 1 -->
  <g transform="translate(10, 30)">
    <polyline points="15,10 15,45 45,45 45,10" fill="none" stroke="black" stroke-width="2" stroke-linejoin="round" />
    <rect x="20" y="35" width="20" height="20" fill="white" stroke="black" stroke-width="1.5" />
    <text x="30" y="50" font-family="sans-serif" font-size="12" font-weight="bold" text-anchor="middle" fill="black">28</text>
    <text x="15" y="5" font-family="sans-serif" font-size="12" text-anchor="middle" fill="black">2</text>
    <text x="45" y="5" font-family="sans-serif" font-size="12" text-anchor="middle" fill="black">3</text>
    <text x="15" y="70" font-family="sans-serif" font-size="12" text-anchor="middle" fill="black">8</text>
    <text x="45" y="70" font-family="sans-serif" font-size="12" text-anchor="middle" fill="black">4</text>
  </g>
  
  <!-- Sample Figure 2 -->
  <g transform="translate(90, 30)">
    <polyline points="15,10 15,45 45,45 45,10" fill="none" stroke="black" stroke-width="2" stroke-linejoin="round" />
    <rect x="20" y="35" width="20" height="20" fill="white" stroke="black" stroke-width="1.5" />
    <text x="30" y="50" font-family="sans-serif" font-size="12" font-weight="bold" text-anchor="middle" fill="black">17</text>
    <text x="15" y="5" font-family="sans-serif" font-size="12" text-anchor="middle" fill="black">5</text>
    <text x="45" y="5" font-family="sans-serif" font-size="12" text-anchor="middle" fill="black">1</text>
    <text x="15" y="70" font-family="sans-serif" font-size="12" text-anchor="middle" fill="black">3</text>
    <text x="45" y="70" font-family="sans-serif" font-size="12" text-anchor="middle" fill="black">2</text>
  </g>
  
  <!-- Sample Figure 3 -->
  <g transform="translate(170, 30)">
    <polyline points="15,10 15,45 45,45 45,10" fill="none" stroke="black" stroke-width="2" stroke-linejoin="round" />
    <rect x="20" y="35" width="20" height="20" fill="white" stroke="black" stroke-width="1.5" />
    <text x="30" y="50" font-family="sans-serif" font-size="12" font-weight="bold" text-anchor="middle" fill="black">42</text>
    <text x="15" y="5" font-family="sans-serif" font-size="12" text-anchor="middle" fill="black">6</text>
    <text x="45" y="5" font-family="sans-serif" font-size="12" text-anchor="middle" fill="black">3</text>
    <text x="15" y="70" font-family="sans-serif" font-size="12" text-anchor="middle" fill="black">5</text>
    <text x="45" y="70" font-family="sans-serif" font-size="12" text-anchor="middle" fill="black">4</text>
  </g>
  
  <!-- Question Figure -->
  <g transform="translate(290, 30)">
    <polyline points="15,10 15,45 45,45 45,10" fill="none" stroke="black" stroke-width="2.5" stroke-linejoin="round" />
    <rect x="20" y="35" width="20" height="20" fill="white" stroke="black" stroke-width="2" />
    <text x="30" y="50" font-family="sans-serif" font-size="14" font-weight="bold" text-anchor="middle" fill="black">54</text>
    <text x="15" y="5" font-family="sans-serif" font-size="14" font-weight="bold" text-anchor="middle" fill="black">6</text>
    <text x="45" y="5" font-family="sans-serif" font-size="14" font-weight="bold" text-anchor="middle" fill="black">3</text>
    <text x="15" y="70" font-family="sans-serif" font-size="16" font-weight="bold" text-anchor="middle" fill="black">?</text>
    <text x="45" y="70" font-family="sans-serif" font-size="14" font-weight="bold" text-anchor="middle" fill="black">8</text>
  </g>
</svg>